<?xml version="1.0" encoding="utf-8"?>
<!-- Svg Vector Icons : http://www.onlinewebfonts.com/icon -->
<!DOCTYPE svg PUBLIC "-//W3C//DTD SVG 1.1//EN" "http://www.w3.org/Graphics/SVG/1.1/DTD/svg11.dtd">
<svg version="1.1" xmlns="http://www.w3.org/2000/svg" xmlns:xlink="http://www.w3.org/1999/xlink" x="0px" y="0px" viewBox="0 0 256 256" enable-background="new 0 0 256 256" xml:space="preserve">
<metadata> Svg Vector Icons : http://www.onlinewebfonts.com/icon </metadata>
<g><g><path fill="#000000" d="M215.2,246H39.3C23.1,246,10,232.9,10,216.7V40.8C10,24.6,23.3,10,39.5,10h118v14.8h-118c-8.1,0-14.9,7.9-14.9,16v175.9c0,8.1,6.6,14.7,14.6,14.7h175.8c8.1,0,16.1-6.7,16.1-14.8v-118H246v118C246,232.7,231.3,246,215.2,246z M127.6,175c-2.1,2.1-4.8,3.2-7.6,3.8l-64.2,31.7c-7.2,3.3-13-3.1-10.4-10.4l31.7-64.2c0.5-2.8,1.6-5.4,3.8-7.6l114-114c5.7-5.7,15-5.7,20.7,0l25.9,25.9c5.7,5.7,5.7,15,0,20.7L127.6,175z M59.5,191.2c-1.7,3.4,1.6,6.8,5.2,5.2l39.6-24l-20.8-20.8L59.5,191.2z M96.5,143.9l15.5,15.6c2.9,2.9-4.5-4.5,5.2,5.2l82.9-82.9L174,55.9l-82.7,82.7C94.1,141.4,93.6,141,96.5,143.9z M226,45.4l-15.5-15.6c-2.9-2.9-7.5-2.9-10.4,0L184.9,45l25.5,26.3L226,55.7C228.9,52.9,228.9,48.2,226,45.4z"/></g></g>
</svg>