<?xml version="1.0" encoding="utf-8"?>
<!-- Svg Vector Icons : http://www.onlinewebfonts.com/icon -->
<!DOCTYPE svg PUBLIC "-//W3C//DTD SVG 1.1//EN" "http://www.w3.org/Graphics/SVG/1.1/DTD/svg11.dtd">
<svg version="1.1" xmlns="http://www.w3.org/2000/svg" xmlns:xlink="http://www.w3.org/1999/xlink" x="0px" y="0px" viewBox="0 0 256 256" enable-background="new 0 0 256 256" xml:space="preserve">
<metadata> Svg Vector Icons : http://www.onlinewebfonts.com/icon </metadata>
<g><g><path fill="#000000" d="M129.8,91.2c-5.9,0-10.7,5.8-10.7,13c0,7.2,4.8,13,10.7,13c5.9,0,10.7-5.8,10.7-13C140.5,97,135.7,91.2,129.8,91.2z M220.8,100.2c0-49.8-41.2-90.2-91.9-90.2C78,10,35.2,50.4,35.2,100.2c0,24,11.2,45.8,26.8,61.9c6.8,7.1,14.8,13,23.6,17.6C78.2,191.4,66.9,213,71.9,230c1.4,21.4,117.2,20,116.8,3.5c4.1-20.6-8.2-42.7-15.9-54.2C201.4,164.1,220.8,134.3,220.8,100.2z M150.2,174h1.5c0,0,24.5,27.4,22.7,47.5c0.3,13.3-88.5,15.6-89.5-1.7c-5.3-19.8,23-45.7,23-45.7h1.2c-13.8-3.7-26.2-11.1-35.7-21c-13.1-13.6-24.1-31.9-24.1-52c0-41.8,37.5-75.7,80.1-75.7c42.6,0,77.2,33.9,77.2,75.7C206.6,135.9,182.8,165.1,150.2,174z M73.2,91.2c-5.9,0-10.7,5.8-10.7,13c0,7.2,4.8,13,10.7,13c5.9,0,10.7-5.8,10.7-13C83.9,97,79.1,91.2,73.2,91.2z"/></g></g>
</svg>