<?xml version="1.0" encoding="utf-8"?>
<!-- Svg Vector Icons : http://www.onlinewebfonts.com/icon -->
<!DOCTYPE svg PUBLIC "-//W3C//DTD SVG 1.1//EN" "http://www.w3.org/Graphics/SVG/1.1/DTD/svg11.dtd">
<svg version="1.1" xmlns="http://www.w3.org/2000/svg" xmlns:xlink="http://www.w3.org/1999/xlink" x="0px" y="0px" viewBox="0 0 256 256" enable-background="new 0 0 256 256" xml:space="preserve">
<metadata> Svg Vector Icons : http://www.onlinewebfonts.com/icon </metadata>
<g><g><g><path fill="#000000" d="M105.3,10.4c-7.8,0.9-13.6,2.1-15,3.1c-0.8,0.6-3.1,2.4-5.2,4.2c-2.1,1.7-4.1,3.4-4.6,3.6c-0.4,0.2-2.3,1.1-4.2,2C65.8,28.4,55.9,41.1,52,54.7c-1.2,4.2-1.5,6.4-1.4,14.5c0.1,16.4,2.7,30.6,7.6,40.9c6.7,14.2,20.6,27.4,35.5,33.7c2.9,1.1,5.9,2.5,6.8,3c0.9,0.4,3.1,1,4.8,1.3c1.8,0.2,4.6,0.7,6.4,1c7.4,1.3,22.3,0.5,29.1-1.7c1.1-0.3,1.2-0.2,0.7,1.1c-1.5,4.1,0.3,10.5,3.9,13.8c2,1.8,2,2.4,0.5,2.9c-0.6,0.2-2.4,1.5-3.9,2.9c-1.5,1.4-3,2.5-3.3,2.5c-1.2,0-0.5,2.6,2,7.2c4.3,8.2,17.2,39.3,17.2,41.6c0,0.6,0.4,1.4,0.8,1.8c0.5,0.4,1.7,2.9,2.7,5.5c3.9,10.3,8.1,16.7,12.4,18.5c7.3,3.1,26.4-4.6,30.4-12.1c2-3.7,1.7-5.9-1.7-11.4c-1.3-2.3-4.4-9.4-6.7-15.6c-4.6-12.4-13.6-34.6-15.9-39.2c-3.9-7.8-7.8-10.8-13.9-10.8c-3.4,0-3.4,0-4.6-2.6c-1.6-3.6-4.3-6.9-7.3-8.9l-2.5-1.7l1.9-0.8c1.1-0.4,1.9-1,1.9-1.3c0-0.3,1.1-0.9,2.4-1.3c4.2-1.4,11.8-5.6,15.8-8.9c7.2-5.9,13.2-15.4,16.6-26.6c1.5-5,1.7-6.6,1.7-15.5c0.1-9.4-0.1-10.3-2.4-19.1c-3.6-13.6-5.1-17.6-10.4-28.3c-5.2-10.2-8.9-14.9-13.6-17.1c-30.4-14.1-29.7-13.9-44.6-14.2C114.8,9.9,107.8,10,105.3,10.4z M131.8,12.9c7,1.1,10,2.3,32.5,12.9c5,2.4,8.3,6.4,13.2,16.5c10,20.1,14.3,40.8,11.3,55.3c-4.5,21.8-19.4,37.1-40.8,41.8c-6.2,1.3-20.7,1.5-27.7,0.4c-7-1.2-16.6-3.7-22-5.8c-6.4-2.5-15.9-8.2-20.2-12.2c-3.6-3.3-9.4-11.3-9.6-13.2c-0.1-0.6-0.6-1.8-1.2-2.8c-1.9-2.7-5.6-12.1-5.2-13.1c0.2-0.5-0.1-1.3-0.6-1.7c-1.8-1.3-3.8-11-3.8-17.9C57.8,56.5,66,40.2,82,24.9c9.4-8.9,10.9-9.9,18.4-11C111,12.3,124.8,11.8,131.8,12.9z M71.8,30.7c-2.2,2.5-3.1,3.1-3.1,2c0-0.6,4.2-4.5,4.9-4.5C73.8,28.2,73,29.3,71.8,30.7z M67.4,35.6c0,0.3-0.8,1.7-1.8,3.2c-1.3,1.9-2,2.5-2.7,2.1c-0.7-0.4-0.5-1,0.9-3.1C65.5,35.5,67.4,34.3,67.4,35.6z M62.4,44.2c0,1.1-1.9,4.3-2.6,4.3c-1.1,0-1.3-1.8-0.3-3.8c0.7-1.3,1.3-1.8,2-1.6C61.9,43.5,62.4,43.9,62.4,44.2z M58.4,51c0.6,0.4,0.5,1.3-0.5,4.3c-0.7,2-1.3,4.2-1.3,4.9c0,0.8-0.4,1.1-1.3,1.1c-1.2,0-1.3-0.3-1-2.4c0.6-3.3,2.3-8.4,2.8-8.4C57.4,50.5,58,50.7,58.4,51z M55.7,64.2c-0.6,2.2-0.6,13.7,0,15.1c0.3,0.7,0.1,1.1-0.6,1.1c-1.3,0-1.7-2.7-1.7-10.9c0-6.6,0.1-6.9,1.3-6.9C55.9,62.6,56.1,62.8,55.7,64.2z M57.6,86.8c0.4,1.5,0.8,2.9,0.6,3c-0.1,0.1-1-0.1-1.9-0.4c-1.1-0.5-1.7-1.1-1.7-2.2c0-0.8-0.2-2-0.4-2.6c-0.3-0.8-0.1-1,1-0.8C56.4,83.8,57,84.6,57.6,86.8z M59.1,93.1c0.9,0.5,5.4,11.5,4.9,12c-0.7,0.6-4.8-0.6-5.4-1.7c-0.3-0.6-1.1-3-1.7-5.2c-0.6-2.3-1.2-4.6-1.4-5.3c-0.3-1-0.1-1.1,1.2-0.8C57.5,92.4,58.6,92.9,59.1,93.1z M66.4,109.2c0.3,0.4,1.3,2.2,2.4,3.9c1.1,1.7,2.7,4.1,3.6,5.2l1.7,2.1h-3.5h-3.4l-2.9-5c-1.6-2.7-3.1-5.6-3.4-6.4c-0.4-1.4-0.4-1.5,2.3-1C64.6,108.4,66.1,108.9,66.4,109.2z M80.9,126.2c2.8,2.1,5.5,3.8,5.9,3.8c0.4,0,0.4,0.3-0.2,0.6c-0.5,0.3-2.8,0.6-5,0.6h-4.1l-4.1-4l-4.1-3.9l2.4-0.4c1.4-0.2,2.9-0.4,3.2-0.5C75.3,122.5,78,124.1,80.9,126.2z M93,133.6c2.5,1.2,4.4,2.4,4.3,2.5c-0.2,0.1-2.8,0.6-5.9,1l-5.5,0.7l-3.9-2.9l-3.9-2.9l5-0.3c2.8-0.1,5.1-0.3,5.2-0.3C88.4,131.4,90.5,132.4,93,133.6z M108,139.3l4.6,1.3l-4.1,2c-2.2,1.1-4.9,2-5.9,2c-2.5,0-12-3.9-10.9-4.5c0.5-0.3,2.2-0.7,3.8-0.9c1.7-0.3,3.5-0.8,4.1-1.3c0.7-0.5,1.8-0.7,2.5-0.5C102.8,137.8,105.5,138.5,108,139.3z M124.8,142.5l4.3,0.4l-1.3,1.8c-1.8,2.5-5.3,3.4-12,2.9c-9.1-0.6-9.3-0.8-3.8-3.6c3.4-1.7,5.3-2.4,6.6-2.1C119.7,142,122.5,142.4,124.8,142.5z M144.2,143.8c-4.1,2-5.7,2-4.8,0.4c0.4-1,1.5-1.3,3.7-1.5c1.7-0.1,3.3-0.3,3.6-0.3C147.1,142.3,146,142.9,144.2,143.8z M136.1,145c-0.5,1.1-1.4,1.7-3,2c-1.3,0.2-2.8,0.5-3.4,0.7c-1,0.3-1,0,0.3-2c1.2-2,1.7-2.2,4.1-2.3C136.8,143.4,136.8,143.4,136.1,145z M151.9,146.7c3.6,2.9,7.9,9.3,7.9,12.1c0,2-1,2.6-5.7,3.6c-3.4,0.7-3.5,0.7-5.6-1.3c-2.7-2.5-5.3-7.8-5.3-10.4c0-2.2,1.1-3.4,4.1-4.5C150,145.2,149.8,145.2,151.9,146.7z M167.7,160.1c1.3,1.3-7.1,8-13.9,11.1c-3.2,1.5-9.3,2.4-10.2,1.4c-1.5-1.5,5.1-6.2,8.7-6.2c3.3,0,9.9-3.4,11.2-5.7C164.5,158.8,166.1,158.5,167.7,160.1z M171.5,162.7c-1,5.7-4.6,10.2-10.1,12.6c-3.8,1.7-10.6,3.2-14.6,3.2c-2.7,0-3.1-0.2-4-1.8l-1-1.8l2.4,0.6c3.2,0.9,7.4,0.2,12.1-2c6.6-3.1,14.8-10,14.8-12.5c0-0.5,0.2-0.9,0.4-0.9C171.8,160,171.8,161.2,171.5,162.7z M177.6,169c0,0.2-0.6,0.3-1.2,0.1c-1-0.3-1.4,0.3-2.3,3.1c-2.2,6.6-8.4,10.6-18.3,12.1c-2.5,0.4-5.3,0.9-6.2,1.1c-1.5,0.5-1.8,0.3-3.1-2.3c-0.7-1.5-1.3-2.9-1.3-3.1c0-0.2,1.7-0.3,3.7-0.3c11.9-0.1,22.2-5.3,24.8-12.9l1.1-3.1l1.4,2.4C177,167.5,177.6,168.8,177.6,169z M180.9,176.7c1.3,3.2,2.4,6,2.4,6.3c0,0.3-1.3,1.7-2.9,3.2c-6,5.7-14.5,9.7-22.1,10.5c-3.6,0.4-5.1,1.2-3.7,2c1.1,0.7,8.7-0.4,13.1-1.8c5-1.7,9.5-4.3,13.6-8l3.3-3l1.6,3.4l1.5,3.4l-3.8,3.6c-6.7,6.6-15.4,9.4-22.6,7.6c-2.3-0.6-3.2-0.6-3.9,0c-1.3,1.1-0.4,1.7,3.7,2.4c7.8,1.4,15.7-1.3,24.3-8.4c1.7-1.4,3.1-2.4,3.2-2.3c0.4,0.5,1.7,3.8,1.7,4.1c0,0.2-0.3,0.1-0.6-0.1c-0.4-0.2-2,1-3.8,2.8c-6.7,6.9-14.7,10.4-22.8,10.1l-4.8-0.2l-3.4-8.9c-1.9-4.9-3.4-9-3.4-9.1c0-0.1,1.2-0.1,2.7-0.1c7-0.1,16.4-3.8,21.1-8.6c2.7-2.7,5.9-7.8,5.2-8.4c-0.8-0.8-2.9,0.7-3.6,2.5c-1.3,3.2-6.2,8-10.1,10c-3.7,1.8-7.8,2.9-12.9,3.4l-2.9,0.3l-1.3-3l-1.3-3.1l5.7-0.7c6.4-0.8,12.7-2.9,16.6-5.4c2.7-1.8,6.2-6.6,6.8-9.5c0.2-1,0.5-1.6,0.7-1.4C178.3,170.7,179.6,173.5,180.9,176.7z M192.6,206.3c0.6,1.8,1,3.5,0.9,3.6c-1,0.8-16.7,7.4-19,8c-1.6,0.4-5.2,0.7-8,0.7c-4.9,0-5.2-0.1-5.9-1.6c-0.4-0.9-0.8-1.7-0.8-1.8c0-0.1,1.2-0.1,2.7,0.1c3.8,0.4,11.5-1.3,16.2-3.7c2.2-1.1,5.8-3.6,8-5.7s4.1-3.5,4.3-3.3C191.3,202.8,191.9,204.5,192.6,206.3z M195,212.8c0.3,1.1-0.7,1.8-6,4.8c-7.6,4.3-15.2,7-21,7.4c-3.5,0.3-4.3,0.1-4.5-0.8c-0.2-0.6-0.5-1.5-0.7-2c-0.4-0.9,0.3-1.1,4.5-1.5c6.6-0.6,11.7-1.9,16.4-4.3c2.9-1.5,9.7-4.5,11-5C194.6,211.6,194.8,212.1,195,212.8z M196.2,221.6c-4.6,4.9-9.3,6.6-19.5,6.9c-4.2,0.2-8.3,0.5-9.2,0.7c-3.3,0.8,2,1.2,9.7,0.8c9.4-0.5,15.3-2.3,19.2-5.8c2.7-2.4,2.9-2.4,3.5-1.2c0.4,0.7,0.7,1.4,0.7,1.5c0,0.5-10.4,7.2-13.7,8.8c-3.4,1.7-7.3,2.7-13.1,3.4c-1.9,0.2-3.7,0.7-3.9,1c-0.3,0.4-3.1-5-4.8-9.4c-0.1-0.4,0.4-0.6,1.5-0.4c2.2,0.3,9.6-1.2,14.2-2.9c1.9-0.7,6.2-2.9,9.6-4.7c6-3.3,6-3.4,6.8-2C197.8,219.5,197.7,220,196.2,221.6z M201.2,232c-1.1,2.6-4.6,5.2-11.7,8.6c-8.9,4.3-14,4.4-17.6,0.6l-1.5-1.6h2.8c7.3-0.1,16.3-3.4,24.5-9.2c3.4-2.4,3.8-2.5,4-1.5C201.8,229.6,201.5,231,201.2,232z"/><path fill="#000000" d="M104.4,19.3c-4.1,1.5-8.7,4.5-15,9.6c-10.3,8.4-17.1,17.7-20.8,28.5c-1.7,5.2-2.1,7.1-2.1,12.2c-0.1,5.8,0.1,6.4,2.7,12.3c1.5,3.4,3.6,9.4,4.6,13.2c2.4,8.7,4.3,12.6,8.3,16.6c5.7,5.7,22.6,15.4,32.2,18.4c5.7,1.8,17.9,2.4,25,1.3c5.5-0.9,19.5-5.3,20.5-6.4c0.2-0.2,2-1.5,4.2-2.9c8-5.4,13.4-13.5,17.7-26.5c2.7-8,3.3-14.1,2-20.5c-1.7-8.6-8-22.9-14.1-32.2c-9.9-14.9-28.3-23.4-53.2-24.5C108.8,18,107.5,18.1,104.4,19.3z M113.3,20.9c0,0.8-0.8,1-3.5,1c-4,0-4.4-0.3-1.4-1.2C111.6,19.7,113.3,19.8,113.3,20.9z M120.2,21.6c-0.1,0.5-0.4,1-0.6,1c-0.3-0.1-1.1-0.1-1.8-0.1c-0.7,0-1.3-0.4-1.3-1c0-0.6,0.6-1,2-1C119.9,20.6,120.4,20.8,120.2,21.6z M124.6,22.3c0.2,1.1-0.1,1.5-0.9,1.3c-0.6-0.1-1.2-0.8-1.3-1.7c-0.1-1.1,0.1-1.5,0.9-1.3C123.9,20.8,124.5,21.6,124.6,22.3z M130.2,22c0,0.1,0.3,0.7,0.7,1.3c1,1.8,2.2,2,2.2,0.4c0-1.1,0.3-1.3,1.5-1c0.8,0.2,1.6,0.4,1.9,0.4c0.3,0,0.4,0.9,0.4,2c0,1.3-0.3,1.9-0.8,1.7c-0.4-0.2-2.6-0.8-4.7-1.4c-3.2-0.9-3.9-1.3-4.2-2.7c-0.3-1.4-0.1-1.5,1.4-1.1C129.4,21.8,130.2,22,130.2,22z M113,25.1c0.2,0.4,1.3,0.5,2.4,0.3c5.2-1,21.7,3.5,29.2,7.9c8.5,5,13.6,11,20.2,23.7c3.6,6.7,4.8,11.1,5.4,19c0.4,4.9,0.3,5.5-0.8,6.1c-1.1,0.6-1.1,0.7,0,1.1c0.8,0.4,1.1,1.2,1.1,3.4c0,1.7-0.2,3.2-0.4,3.4c-0.3,0.3-0.4,2.2-0.5,4.5c-0.1,2.2-0.4,4.5-0.9,5c-0.4,0.5-0.6,1.1-0.4,1.3c0.6,0.7-2.2,7-6.7,14.4l-4.6,7.6l-4.3,1.9c-5.5,2.5-10.3,3.7-17.9,4.6c-13.6,1.7-25.2-1.5-40.4-11.1c-12-7.4-15.1-11.5-18.5-25c-1-3.9-2.9-9.6-4.3-12.7c-2.2-5-2.5-6.3-2.5-10.5c0.1-7.8,4.8-19.9,11.3-28.4c3-4,10.8-10.9,16.9-15.2c3.3-2.2,3.6-2.3,9.4-2.3C110.2,24.4,112.7,24.6,113,25.1z M143.5,25.3c2.1,0.9,2.3,1.2,2.3,3.5v2.5l-3.1-1.5c-2.9-1.5-3.1-1.7-2.8-3.5C140.2,24.1,140.4,24.1,143.5,25.3z M149.6,28.4c-0.1,0.3-0.1,1.6-0.1,3.1c0,1.5-0.3,2.4-0.6,2.2c-0.9-0.6-0.8-6.2,0.1-5.9C149.4,27.8,149.6,28.1,149.6,28.4z M154.5,30.9c0.8,0.8,1,4.2,0.4,5.9c-0.3,0.9-0.6,0.8-2.3-0.3c-1.7-1.2-1.8-1.5-0.9-2.4c0.6-0.6,1-1.7,1-2.5C152.8,29.9,153.4,29.7,154.5,30.9z M160.9,39.3c-0.6,1.3-1.1,2.7-1.1,3.3c0,0.9-0.3,0.8-1.5-0.4c-1.3-1.2-1.5-1.8-1-3.1c0.3-0.8,0.6-2.6,0.6-3.9V33l2,2l2,2L160.9,39.3z M167.7,44.1c0.8,1.5,0.7,1.7-1.9,3.6l-2.7,2l-1.3-2.2c-1-1.7-1.1-2.2-0.4-2.2c0.5,0,1.1-0.8,1.3-1.8c0.3-1,0.7-2.3,1.1-2.9c0.6-1.1,0.6-1.1,1.8,0.3C166.3,41.8,167.2,43.2,167.7,44.1z M167.7,50.8c-1.3,1.1-2.8,2-3.1,1.7c-0.4-0.2-0.3-0.5,0.3-0.6c0.5-0.2,1.8-1,2.7-1.8c1-0.8,2-1.5,2.2-1.5C170.1,48.6,169.1,49.6,167.7,50.8z M172.8,53.4c0.6,1.3,1,2.4,0.9,2.4c-5.1,3.1-5.5,3.2-6.4,1.3c-0.6-1.5-0.5-1.8,1.4-3.8c1.2-1.2,2.4-2.2,2.5-2.2C171.5,51.1,172.1,52.1,172.8,53.4z M176.2,60.5c0.6,1.7,0.4,1.9-2.2,3.5c-2.9,1.7-3,1.7-4-1c-0.6-1.6-0.4-1.8,1.7-2.9C174.9,58.4,175.4,58.4,176.2,60.5z M178.9,67.4c0.4,1.2,0.4,2-0.2,2.7c-3.7,4.6-6.2,5.9-6.2,3.2c0-0.8-0.2-2-0.4-2.7c-0.3-1.1,0.2-1.7,2.4-3.1C177.9,65.4,178.1,65.4,178.9,67.4z M181.4,77.9c0.1,1.6-0.2,1.8-3.9,2.4c-2.2,0.4-4.3,0.7-4.5,0.7c-0.3,0-0.4-0.8-0.4-1.8c0-1.6,0.3-1.9,2.2-2.2c1.2-0.3,3-1.1,3.9-2l1.8-1.5l0.4,1.4C181.1,75.6,181.3,77,181.4,77.9z M181.4,83.5c0,1.3-0.4,2.9-0.8,3.4c-0.7,0.8-6.8,2.8-7.2,2.3c-0.1-0.1-0.3-1.5-0.4-3.2l-0.4-3.1l2.4-0.6C181.5,80.7,181.4,80.7,181.4,83.5z M179.1,93.5c-0.8,2.3-1.5,3.1-3.1,3.8c-3.2,1.3-3.5,1.2-3.3-2.1c0.2-3,0.2-3,3.1-3.8C180.2,90.3,180.2,90.3,179.1,93.5z M175.4,103c-1,2.3-2.1,4.1-2.5,4.1c-0.4,0-1.3,0.2-2.1,0.4l-1.3,0.4l1.5-4c1.2-3.4,1.7-4.1,3.6-4.8c1.2-0.4,2.3-0.6,2.4-0.5C177,98.7,176.3,100.7,175.4,103z M170.7,111.4c-1.5,2.2-7.1,7.6-7.1,7c0-1.2,4.1-6.9,5.6-7.8C171.7,109.3,172.1,109.5,170.7,111.4z"/></g></g></g>
</svg>