<?xml version="1.0" encoding="utf-8"?>
<!-- Svg Vector Icons : http://www.onlinewebfonts.com/icon -->
<!DOCTYPE svg PUBLIC "-//W3C//DTD SVG 1.1//EN" "http://www.w3.org/Graphics/SVG/1.1/DTD/svg11.dtd">
<svg version="1.1" xmlns="http://www.w3.org/2000/svg" xmlns:xlink="http://www.w3.org/1999/xlink" x="0px" y="0px" viewBox="0 0 256 256" enable-background="new 0 0 256 256" xml:space="preserve">
<metadata> Svg Vector Icons : http://www.onlinewebfonts.com/icon </metadata>
<g><g><path fill="#000000" d="M156,74.6c2.5,8.1-9.4,7.9-9.9,2.7C145.5,72.2,153.3,70.8,156,74.6z"/><path fill="#000000" d="M106.9,75.3c4.4,7.4-6.1,9.5-9.6,4.8C96.2,73.3,103.4,72.8,106.9,75.3z"/><path fill="#000000" d="M54.1,133.7c-4.3,1.2-7.7-1.2-10.3-3.4c-5.6-16.7-5.6-42,3.1-55.3c3.2-1.2,7.6,1.3,7.9,4.5c0.1,1.5-1.7,4.7-2.4,7.5c-1.8,7.3-3.4,16.3-2.7,24.7c0.1,1.3,1.3,2.8,1.4,4.1c0.2,2.7,0.1,5.8,1.4,8.6C53.9,127.8,57.2,129.2,54.1,133.7z"/><path fill="#000000" d="M131,75c-0.6,2.3,1.6,1.8,2.4,2.7c0.3,1,0.4,2.1,0.7,3.1c-2.1,2.5-7.5,4-9.9,0.7C123.4,75.7,126.1,74.7,131,75z"/><path fill="#000000" d="M148.5,88c-0.2,7.3-10.5,10.6-20.2,9.9c-2.2-0.1-4.1-1.6-6.9-2.7c-0.7-0.3-1.8,0.2-2.4,0c-4.3-1.3-7.9-10.6,1-9.6c2.8,0.3,5.4,3.3,8.9,3.8c1.4,0.2,3.2,0.2,4.5,0C139.7,88.7,144.2,83.7,148.5,88z"/><path fill="#000000" d="M68.9,150.5c-0.1,1.9-2,2.1-2.1,4.1c-4.2,0.7-8.2-0.2-8.6-3.4C57.4,145.1,67.5,144.6,68.9,150.5z"/><path fill="#000000" d="M166.6,184.1c0.5,7.9-1.2,16.8-1.4,25.8c-0.1,4.7,0.8,10.1-0.7,14.1c-0.4,1.1-3,3-4.5,4.5c-5.6,5.8-11.3,10.6-19.6,14.4c-11.2,5.2-26.7,3.3-36.7-0.3c-1.2-0.4-2.3-1.3-3.4-1.7c-4.4-1.8-6.1-2.4-9.9-5.1c-4.2-3-7.9-5.8-11-9.9c-3-4.1-8-12.2-6.9-15.4c0.6-1.7,2-2.6,4.8-2.7c-4.4-8.2-2.7-18.6-3.4-29.5c-10.2-2.4-20.6-6-28.1-12c-6.6-5.3-12.1-12.5-15.4-21.6c-1.9-5.2-4.3-10.6-5.5-16.8c-1.4-7.2-2-15.8-2.4-23.7c-0.4-7.3,1-13.2,2.7-19.2c0.5-1.5,0.5-3.3,1-4.8c0.7-2.1,2.7-3.6,2.4-6.2c2.4-5.4,6-9.6,8.6-14.8c2.3-1.7,4.4-3.6,5.5-6.5c3.4-2.7,7-5.4,9.3-9.3c4.8-1.9,6.7-6.5,11.3-8.6c2.5-4.1,8.1-5,11-8.6c4.6-0.5,5.9-4.1,11-4.1c9.2-5.4,21-8.8,32.9-11c18.6-3.4,38.2,4.1,53.9,9.6c13.3,6.1,25.9,14.7,36.4,25.8c10.4,11,19.3,22.8,23,39.1c4.5,20.2,0.5,44.3-5.8,62.8c-3.4,5.1-6.2,9.3-11,13.7c-5.7,5.3-10.7,10.5-18.9,13.7c-1.1,0.5-2.5,0.5-3.8,1C184.7,179.4,175.5,182.1,166.6,184.1z M180.4,170.4c8.2-2.8,13.8-4.5,19.9-9.3c4-3.1,8.6-6.5,11.3-9.9c8.4-10.5,11.3-30.3,12-45.6c1.3-29.1-14.2-47.7-30.2-61.1c-5.8-4.9-9.6-8-16.5-11.7c-4.5-2.4-10.1-5.1-14.8-6.9c-5.9-2.2-12.5-3.1-18.5-4.5C123.9,17,102.2,23,88,30c-4,2-8.1,3.1-11.3,5.5c-1.2,0.8-2.2,2.2-3.4,3.1c-4,3-7,6.2-11,9.3c-2,1.5-4.1,2.3-5.8,3.8c-5.3,4.6-8.8,10.3-13.4,15.8C38,78.5,32.1,90.5,32.4,104.5c0.2,11.2,1.9,21.4,5.2,31.2c1.7,5.1,3.9,11.2,6.2,15.1c3.4,5.7,9.9,7.3,13,12.4c7.1,2.4,13.3,5.7,22.6,5.8c2.6,0.9,4.2,4.5,5.8,5.2c-3.2-26.1,3.8-51,16.8-67.9c-3.3-2.4-7-4.2-9.9-6.9c-2.9-3.6-4.9-8.2-7.6-12c-12.9,4.3-26.3-5.8-20.9-16.8c3.5-7.1,12.8-9.9,20.9-6.9c1.6-2.3,3.2-4.6,3.8-7.9c4-4.5,7.5-10.3,12.4-13.4c10.1-6.4,23.8-9.6,36.7-8.2c4.4,0.5,11.2,2.4,14.7,4.8c0.9,0.6,1.7,2,2.7,2.7c7.7,5.9,14.2,12.1,17.8,21.3c11.6-1,19.3,9.4,16.5,19.6c-2.9,6.4-10.9,5.9-17.2,7.9c-2.8,12.5-10.6,20-22.6,23.3c1.7,5.4,4.8,10.2,6.5,15.8c0.5,1.5,0.2,3.3,0.7,4.8c0.4,1.4,1.4,2.3,1.7,3.8c1.9,9.3,0.8,20.1,2,28.5c-1.3,2.3-0.1,5-0.7,7.9C168.1,174.8,174.5,172.4,180.4,170.4z M122.4,59.5c4.2-0.8,4.1-6,6.2-8.9c2.1-1.4,2.9-4.2,4.1-6.5c-0.1-0.4-0.4-0.5-0.7-0.7C128.3,48.3,125,53.6,122.4,59.5z M137.2,43.8c-2.8,4.6-5.4,9.5-7.5,14.8c4.6-3.3,6.2-9.6,9.6-14.1C138.6,44.2,138.3,43.5,137.2,43.8z M121.7,51.3c2-2,3.8-4.2,4.8-7.2C123.7,45.3,122.3,48,121.7,51.3z M105.9,56.5c-0.9,1.5-3.1,3-2.1,5.2c4.6-3.6,6.3-9.9,9.9-14.4C108.1,47.5,108.5,52.3,105.9,56.5z M142.3,55.8c2.2,0.2,2.9-1.2,5.2-1c1.5-1.3,1.5-4,2.4-5.8c-1.1-0.7-1.7-1.7-3.4-1.7C144.4,49.5,143,52.2,142.3,55.8z M109.7,60.9c1.5,1.1,2.9-0.4,2.4-2.4c2-3.1,4.9-7.3,5.5-10.6C114.9,52.2,112.7,57,109.7,60.9z M116.6,59.9c1.3-0.4,2.8-2.4,2-3.8C117.7,57.1,117.1,58.5,116.6,59.9z M125.8,103.5c1,0.3,1.7,1.1,2.7,1.4c5,0.1,9,1.5,14.1,1c5-0.5,11.1-3.6,14.1-6.5c7.5-7.3,11.7-30.9,3.1-39.1c-18.6,6.7-42.1,11-65.5,10.6C89.8,92.8,107,101.4,125.8,103.5z M79.8,70.9c-5.1-0.9-5.7,3.3-7.6,5.8c0.4,3.7,8.2,4,11,2.1c-0.6-1.8-0.1-3.6,0-5.5C82,72.1,81.3,71.2,79.8,70.9z M180.4,77.8c0.4-2.4-2.2-5.7-3.8-5.5c-3.3,0.5-1.5,6.7-1.7,9.6C177.4,80.9,180,80.1,180.4,77.8z M123.4,113.1c-3.5-0.7-7.5-2.7-9.3-2.7c-4.8-0.2-5.6,4.5-7.2,7.9c0.3,0.1,0.4,0.3,0.3,0.7c2.2,0.7,3.5,2.7,4.5,4.5c4.2,7.7,9.4,17.1,13.7,24.7c7.2-6.9,10.7-17.6,17.5-25.1c-1.1-3-2.9-5.3-4.5-7.9C134.2,114.1,127.4,113.8,123.4,113.1z M100.1,134.4c1.8-1.2,2.4-3.5,3.4-5.5c-0.4,0-0.5-0.4-1-0.3C101.9,130.7,100.5,132,100.1,134.4z M99,147.4c3.5-3.9,6.1-8.8,7.5-14.7C102.9,136.3,101.1,142,99,147.4z M133.4,164.9c-0.5,2.3-1.7,6.2,0,8.2c1.2-1.4,2-3.5,2.4-5.1c3-11.2,8.2-21,11.3-32.6c-0.1-0.3-0.3-0.4-0.7-0.3C141,142.9,135.6,153.9,133.4,164.9z M97,164.6c-1,0.2-2.2,1.4-1.4,2.4c2-1.1,2.6-3.6,3.4-5.8c3.3-3.1,4-8.8,7.2-12c0.6-3.9,3-5.9,3.8-9.6c-0.7,0-0.2-1.1-1-1C104.9,146.9,98.3,154.6,97,164.6z M143.3,159.1c1.6-4.6,5.2-10.8,4.8-15.1C146.8,149.1,142.9,153.4,143.3,159.1z M101.5,167c-1.3,1.5-2.5,3.3-2.7,5.8c3.5,0.4,3.2-3,4.1-5.2c0.8-0.2,0.9-1.1,1.7-1.4c1.1-3.6,3.3-6.8,4.8-10.3c1.5-3.4,3.8-6.8,3.8-10.6c-0.4,0-0.5-0.5-1-0.4C108,151.8,104.6,159.3,101.5,167z M110.7,166.3c0.5-0.9,1.6-1.5,2.1-2.4c0.9-1.9,1.7-5.1,2.7-7.2c1.2-2.5,3.7-4.6,0-5.8c-2.9,7.5-7.9,14.7-9.6,22.3C109,173.6,109.3,169.1,110.7,166.3z M149.1,157c0.7-0.2,1.1-2.3,0-2.4C148.6,155.3,147.4,156.8,149.1,157z M124.4,173.5c1,0,2.2,0.2,2.7-0.3c0.8-5,2.8-8.9,3.4-14.1C125.9,161.2,126,168.2,124.4,173.5z M119,172.8c2.7-3.2,3.6-8.3,5.2-12.7c-0.1-0.4-0.4-0.5-0.7-0.7C121,163,119.7,167.6,119,172.8z M115.9,166.6c0.9-1.9,2.9-4.4,2.4-6.5C117.1,161.7,115.9,165,115.9,166.6z M146.7,173.1c1.1,0.2,1.3-0.3,2.1-0.3c0.6-3.2,1.9-7.5,0-9.6C148.7,167,145.6,170.3,146.7,173.1z M114.8,169.7c0.1-0.6,1.5-2.4,0-2.4C115.1,168.2,113.8,169.2,114.8,169.7z M84,182.4c-0.7,2-0.6,3.9,0,5.8c23.4,1.8,46.2-0.4,71.7,0.3c1.2-1.6,1-4.2,0.3-6.2C133.2,181.7,105.9,181.8,84,182.4z M84.6,196.5c-0.2,0-0.4,0-0.3,0.3c-0.2,3.1,2.3,6.1,0.7,9.6c9.9,2.3,21.9,0.8,33.6,1.4c12.8,0.6,25.6,2.9,36.7,1.3c0.6-3.8,1-7.8,0.3-12C130.5,195.7,107.8,198.2,84.6,196.5z M86.7,217.4c-0.1-0.8,0.6-0.7,0.3-1.7c-0.5-0.1-0.6-0.5-1.4-0.4C84.8,216,85,217.6,86.7,217.4z M92.5,225c0.7-2.9,1.4-5.6,2-8.6C88.5,213.8,87.5,224.7,92.5,225z M100.8,230.8c0.8,0.6,0.8,1.9,2.4,1.7c1.2-5.3,4.4-10.5,4.5-15.8C102.1,216.8,103.1,226.3,100.8,230.8z M106.9,233.2c0.5,0.8,1.2,1.6,2.4,1.7c2-2.4,2.7-5.8,3.8-8.9c1.1-3,2-6.2,2.4-9.6C108.1,217,109.8,227.9,106.9,233.2z M98.7,216.7c-1.2,3.2-3.3,9.9-1.4,12c0.8-4.2,3.2-6.9,3.4-11.7C100,217.1,99.7,216.5,98.7,216.7z M119.6,216.7c-2,5.7-5.6,13-4.5,19.6c1.7-1,2.4-3.1,2.4-5.8c2-3.8,4.7-8.8,4.8-13.4C121.9,216.6,120.6,216.8,119.6,216.7z M127.2,217.4c-3,5.5-5.8,13-6.2,19.9c3.1-0.6,3.7-4.1,4.8-7.2c1.3-4,2.3-8.3,3.8-12C128.8,217.8,128.2,217.4,127.2,217.4z M134,217.8c-3.1,4.8-5.2,12.4-5.8,18.5c1.1,0.3,0.7-0.9,1.7-0.7c0.7-5.6,5-12,5.5-17.8C135,217.8,134.5,217.8,134,217.8z M139.9,218.5c-1.8,5.2-4.8,10.3-5.2,16.5c5.8-1.5,4.6-11.7,8.2-15.4c1.2,0.3,2.2,0.8,2.4,2.1c-1.1,2.4-3,5.6-2,8.9c3.9-1.5,2.5-8.5,4.8-11.7C145.7,218.8,143.1,218.5,139.9,218.5z M149.8,224.6c1.9-1,5.4-3.9,4.1-5.8C152.7,220.9,150.4,221.9,149.8,224.6z"/></g></g>
</svg>